<?xml version="1.0" standalone="no"?>
<!DOCTYPE svg PUBLIC "-//W3C//DTD SVG 20010904//EN"
 "http://www.w3.org/TR/2001/REC-SVG-20010904/DTD/svg10.dtd">
<svg version="1.0" xmlns="http://www.w3.org/2000/svg"
 width="55.000000pt" height="50.000000pt" viewBox="0 0 55.000000 50.000000"
 preserveAspectRatio="xMidYMid meet">
<metadata>
Created by potrace 1.10, written by Peter Selinger 2001-2011
</metadata>
<g transform="translate(0.000000,50.000000) scale(0.100000,-0.100000)"
fill="#000000" stroke="none">
<path d="M52 474 c-8 -16 -12 -86 -11 -200 1 -170 2 -176 25 -204 l25 -29 183
0 c249 -1 230 -19 234 228 2 124 -1 197 -8 211 -10 19 -19 20 -224 20 l-213 0
-11 -26z m418 -194 l0 -200 -195 0 -195 0 0 193 c0 107 3 197 7 200 3 4 91 7
195 7 l188 0 0 -200z"/>
<path d="M100 280 l0 -180 178 0 178 0 1 180 2 180 -179 0 -180 0 0 -180z m76
63 c14 -47 29 -81 33 -77 4 5 16 41 26 79 17 67 38 105 51 93 3 -4 0 -16 -6
-28 -13 -25 -9 -192 5 -224 6 -14 5 -18 -6 -14 -9 3 -16 25 -19 64 l-5 59 -12
-48 c-11 -39 -17 -47 -37 -47 -19 0 -26 8 -37 48 l-14 47 -5 -60 c-4 -44 -9
-60 -20 -60 -12 0 -15 22 -18 124 -2 91 1 127 10 132 20 13 26 2 54 -88z m242
75 c8 -8 12 -49 12 -120 0 -119 -5 -128 -70 -128 -66 0 -70 8 -70 134 0 62 3
116 7 119 11 12 108 8 121 -5z m-104 -276 c-5 -14 -4 -15 4 -2 14 21 106 19
110 -2 2 -13 -20 -15 -153 -16 -128 -2 -155 1 -155 12 0 18 14 21 117 23 72 1
81 -1 77 -15z"/>
<path d="M320 305 l0 -96 36 3 36 3 0 90 0 90 -36 3 -36 3 0 -96z"/>
</g>
</svg>
